{"title":"WWE.NXT.10.4.2011.MM.H.264.Mp4-By.Snaw90","uid":6721395,"size":354319939,"categoryP":"video","categoryS":"hd___tv_shows","magnet":"?xt=urn:btih:f2afafd59a91b40e94c8ffdf564d8820452f1b4b&amp;dn=WWE.NXT.10.4.2011.MM.H.264.Mp4-By.Snaw90&amp;tr=udp%3A%2F%2Ftracker.openbittorrent.com%3A80&amp;tr=udp%3A%2F%2Fopen.demonii.com%3A1337&amp;tr=udp%3A%2F%2Ftracker.coppersurfer.tk%3A6969&amp;tr=udp%3A%2F%2Fexodus.desync.com%3A6969","seeders":0,"leechers":0,"uploader":null,"files":1,"time":1317808024,"description":"\nGeneral\n\nComplete name                 : WWE.NXT.10.4.2011.MM.H.264.Mp4-By.Snaw90.mp4\nFormat                               : MPEG-4\nFormat profile                    : Base Media\nFile size                             : 338 MiB\nDuration                             : 33mn 48s\nLanguage                           : Italian\nOverall bit rate                    : 1 398 Kbps\nWriting application              : Lavf52.78.3\n\nVideo\nFormat                                : AVC\nDuration                              : 33mn 48s\nWidth                                  : 720 pixels\nHeight                                 : 576 pixels\nDisplay aspect ratio            : 5:4\nStandard                             : PAL\nColor space                        : YUV\nStream size                        : 300 MiB (89%)\nWriting library                     : x264 core 106 r1732 b20059a\n\n\nAudio\nFormat                                : AAC\nDuration                              : 33mn 48s\nBit rate                                : 152 Kbps\nChannel(s)                          : 2 channels\nSampling rate                     : 44.1 KHz\nStream size                        : 36.7 MiB","torrent":{"xt":"urn:btih:f2afafd59a91b40e94c8ffdf564d8820452f1b4b","amp;dn":"WWE.NXT.10.4.2011.MM.H.264.Mp4-By.Snaw90","amp;tr":["udp%3A%2F%2Ftracker.openbittorrent.com%3A80","udp%3A%2F%2Fopen.demonii.com%3A1337","udp%3A%2F%2Ftracker.coppersurfer.tk%3A6969","udp%3A%2F%2Fexodus.desync.com%3A6969"],"infoHash":"f2afafd59a91b40e94c8ffdf564d8820452f1b4b","infoHashBuffer":{"type":"Buffer","data":[242,175,175,213,154,145,180,14,148,200,255,223,86,77,136,32,69,47,27,75]},"announce":[],"urlList":[]}}